HIERARCHY
ROOT Hips
{
	OFFSET	0.00	0.00	0.00
	CHANNELS 6 Xposition Yposition Zposition Zrotation Xrotation Yrotation
	JOINT Spine
	{
		OFFSET	 0.00	0.01	 0.00
		CHANNELS 3 Zrotation Xrotation Yrotation
		JOINT Spine1
		{
			OFFSET	 0.00	 2.45913012437421	 0.00
			CHANNELS 3 Zrotation Xrotation Yrotation
            JOINT Neck
            {
                OFFSET	 0.00	 2.48462964506057	 0.00
                CHANNELS 3 Zrotation Xrotation Yrotation
                JOINT Head
                {
                    OFFSET	 0.00	 0.927524780924562	 0.00
                    CHANNELS 3 Zrotation Xrotation Yrotation
                    End Site 
                    {
                        OFFSET	 0.00	 1.14999962169752	 0.00
                    }
                }
            }
			JOINT LeftShoulder
			{
				OFFSET	 0.00	 2.48462964506057	 0.00
				CHANNELS 3 Zrotation Xrotation Yrotation
				JOINT LeftUpArm
				{
					OFFSET	 0.00	 1.24881979654096	 0.00
					CHANNELS 3 Zrotation Xrotation Yrotation
					JOINT LeftForeArm
					{
						OFFSET	 0.00	2.59758046908119	 0.00
						CHANNELS 3 Zrotation Xrotation Yrotation
						JOINT LeftHand
						{
							OFFSET	 0.00	2.45542024364365	 0.00
							CHANNELS 3 Zrotation Xrotation Yrotation
							JOINT LeftHandThumb 
							{
								OFFSET	 0.00	0.00	 0.00
								CHANNELS 3 Zrotation Xrotation Yrotation
								End Site
								{
									OFFSET	 0.00	0.00	1.00000003353624
								}
							}
							JOINT L_Wrist_End 
							{
								OFFSET	 0.00	0.99999967115358	 0.00
								CHANNELS 3 Zrotation Xrotation Yrotation
								End Site 
								{
									OFFSET	 0.00	 0.00	 0.00
								}
							}
						}
					}
				}
			}
			JOINT RightShoulder
			{
				OFFSET	 0.00	 2.48462964506057	 0.00
				CHANNELS 3 Zrotation Xrotation Yrotation
				JOINT RightUpArm
				{
					OFFSET	 0.00	 1.24881979654096	 0.00
					CHANNELS 3 Zrotation Xrotation Yrotation
					JOINT RightForeArm
					{
						OFFSET	 0.00	2.59758046908119	 0.00
						CHANNELS 3 Zrotation Xrotation Yrotation
						JOINT RightHand
						{
							OFFSET	 0.00	2.45542024364365	 0.00
							CHANNELS 3 Zrotation Xrotation Yrotation
							JOINT RightHandThumb 
							{
								OFFSET	 0.00	0.00	 0.00
								CHANNELS 3 Zrotation Xrotation Yrotation
								End Site
								{
									OFFSET	 0.00	0.00	1.00000003353624
								}
							}
							JOINT R_Wrist_End 
							{
								OFFSET	 0.00	0.99999967115358	 0.00
								CHANNELS 3 Zrotation Xrotation Yrotation
								End Site 
								{
									OFFSET	 0.00	 0.00	 0.00
								}
							}
						}
					}
				}
			}
		}
	}
	JOINT LeftUpLeg
	{
		OFFSET	 1.2719394002717	 0.00	 0.00
		CHANNELS 3 Zrotation Xrotation Yrotation
		JOINT LeftLowLeg
		{
			OFFSET	 0.00	-4.3429100912261	 0.00
			CHANNELS 3 Zrotation Xrotation Yrotation
			JOINT LeftFoot
			{
				OFFSET	 0.00	-4.48767017425826	 0.00
				CHANNELS 3 Zrotation Xrotation Yrotation
				JOINT LeftToeBase
                {
                    OFFSET	 0.00	0.00	 1.51507020887566
                    CHANNELS 3 Zrotation Xrotation Yrotation
                    End Site 
                    {
                        OFFSET	 0.00	0.00	 0.75000010571191
                    }
                }
			}
		}
	}
	JOINT RightUpLeg
	{
		OFFSET	 -1.2719393604653	 0.00	 0.00
		CHANNELS 3 Zrotation Xrotation Yrotation
		JOINT RightLowLeg
		{
			OFFSET	 0.00	-4.3429100912261	 0.00
			CHANNELS 3 Zrotation Xrotation Yrotation
			JOINT RightFoot
			{
				OFFSET	 0.00	-4.48767017425826	 0.00
				CHANNELS 3 Zrotation Xrotation Yrotation
				JOINT RightToeBase
                {
                    OFFSET	 0.00	0.00	 1.51507020887566
                    CHANNELS 3 Zrotation Xrotation Yrotation
                    End Site 
                    {
                        OFFSET	 0.00	0.00	 0.749999965609858
                    }
                }   
			}
		}
	}
}
MOTION 
Frames:	10 
Frame Time: 0.02 
  -5.565989990234375 4.414280090332031 10.2775 -51.2868 84.2309 42.5962 2.43884 -14.1194 19.1122 15.744 32.7836 -29.3592 3.45428 43.5082 58.1336 -60.8097 -33.2979 -80.0584 -115.8899 8.83815 -5.94027 -34.4376 30.821 38.0006 0.0 95.9511 0.0 32.4445 4.19998 14.7868 0.0 0.0 0.0 0.0 0.0 0.0 114.2213 2.90979 -2.48682 29.3271 20.3851 -1.11615 0.0 91.1859 0.0 -4.72939 2.07733 29.867 0.0 0.0 0.0 0.0 0.0 0.0 1.90102 7.97578 5.65344 0.0 10.4542 0.0 -2.72773 2.1371002 8.8645 0.0 -9.80238 0.0 0.107718 -7.68287 14.7853 0.0 14.4435 0.0 17.7364 13.27394 -18.3497 0.0 -25.7462 0.0 
  -5.609320068359375 4.379089965820312 10.2697998046875 -49.6997 84.5834 41.7269 2.64955 -14.308 19.2119 15.5151 32.9418 -29.567 3.80829 42.9901 57.6918 -60.6594 -33.3177 -79.7982 -115.7419 8.93377 -5.99181 -33.753 30.5749 38.4182 0.0 93.8077 0.0 29.2229 2.5101 13.1598 0.0 0.0 0.0 0.0 0.0 0.0 114.1402 2.7526 -2.26058 28.7794 19.287 -0.756695 0.0 87.8545 0.0 -5.63048 3.4175 38.8617 0.0 0.0 0.0 0.0 0.0 0.0 1.89679 8.04603 5.34347 0.0 10.2238 0.0 -2.92031 2.1640997 8.41282 0.0 -9.87928 0.0 0.0358252 -7.75722 14.9782 0.0 14.1102 0.0 17.636 13.57916 -18.2718 0.0 -25.8067 0.0 
  -5.657680053710937 4.340669860839844 10.260999755859375 -47.8648 84.8873 40.547 2.84026 -14.4877 19.2934 15.4105 33.1138 -29.7335 3.9016 42.3262 57.5141 -60.4671 -33.2541 -79.9243 -115.6782 8.98451 -6.18449 -33.0482 30.1974 39.287 0.0 91.2337 0.0 26.1748 1.57132 12.6102 0.0 0.0 0.0 0.0 0.0 0.0 114.0172 2.64514 -1.94383 28.0518 17.7068 -0.940546 0.0 84.8983 0.0 -6.09406 4.70627 46.2339 0.0 0.0 0.0 0.0 0.0 0.0 1.93434 8.1507 5.09057 0.0 10.0685 0.0 -3.12686 2.1212997 7.9887 0.0 -9.881741 0.0 0.084226 -7.8295 15.2544 0.0 14.2558 0.0 16.9633 14.456492 -17.8404 0.0 -25.995499 0.0 
  -5.711580200195312 4.301539916992187 10.251600341796875 -45.9247 85.2586 39.2595 3.07411 -14.5635 19.5252 14.9897 33.1261 -29.786 4.39872 41.9389 56.9339 -60.438 -33.3705 -79.6798 -115.6592 9.01008 -6.16099 -32.1929 29.8672 40.4434 0.0 88.1495 0.0 23.8272 0.690179 12.8415 0.0 0.0 0.0 0.0 0.0 0.0 113.7358 2.13182 -1.60017 27.8337 15.2965 -2.52266 0.0 82.0807 0.0 -8.24598 8.90524 48.0273 0.0 0.0 0.0 0.0 0.0 0.0 1.96626 8.15064 4.80672 0.0 10.0094 0.0 -3.32956 2.0831003 7.61076 0.0 -9.93721 0.0 0.192528 -8.05556 15.8907 0.0 15.0237 0.0 16.1087 14.785102 -17.4313 0.0 -25.963501 0.0 
  -5.7716302490234375 4.259190063476563 10.241099853515625 -44.2063 85.6528 38.221 3.22565 -14.7353 19.6329 14.7668 33.1635 -29.8646 4.7154 41.3348 56.4787 -60.2357 -33.3349 -79.491 -115.6578 9.04114 -6.17534 -31.3869 29.3874 41.7809 0.0 84.8803 0.0 21.249 -0.202637 14.9709 0.0 0.0 0.0 0.0 0.0 0.0 113.5744 1.6216 -1.02376 26.913 13.0521 -4.57635 0.0 80.2161 0.0 -8.25321 10.0346 47.7945 0.0 0.0 0.0 0.0 0.0 0.0 2.03998 8.05627 4.33995 0.0 10.0815 0.0 -3.55889 1.9633999 7.37648 0.0 -9.9671 0.0 0.421822 -8.32104 16.7982 0.0 16.0703 0.0 15.7151 13.64203 -18.2737 0.0 -24.67051 0.0 
  -5.83552978515625 4.212950134277344 10.23469970703125 -41.8489 85.7819 36.649 3.46938 -14.7502 19.6716 14.7628 33.3625 -30.1087 5.01858 40.5905 56.0477 -60.1782 -33.3215 -79.22 -115.7517 9.14713 -6.18593 -30.4367 28.7828 43.0773 0.0 81.6202 0.0 18.2232 -1.60176 18.5709 0.0 0.0 0.0 0.0 0.0 0.0 113.3105 0.985814 -0.185181 26.0581 10.5082 -7.74523 0.0 78.9336 0.0 -8.06072 11.3876 47.8087 0.0 0.0 0.0 0.0 0.0 0.0 2.27417 8.12834 3.65846 0.0 10.2686 0.0 -3.85927 1.8258 7.27083 0.0 -10.00541 0.0 0.722079 -8.1605 17.8301 0.0 16.7522 0.0 17.1459 12.32245 -20.2737 0.0 -24.04932 0.0 
  -5.903359985351562 4.162200012207031 10.233900146484375 -41.6818 85.7445 37.446 4.01504 -14.8831 19.7552 14.8259 33.8925 -30.6695 5.58915 39.5973 55.3818 -60.0442 -33.4556 -78.8327 -115.7434 9.3147 -6.16212 -29.404 28.0431 44.2894 0.0 78.4622 0.0 15.3054 -3.58145 22.8948 0.0 0.0 0.0 0.0 0.0 0.0 113.1941 0.251634 0.538282 25.096 7.72023 -11.2451 0.0 78.6745 0.0 -4.41061 10.8948 49.1026 0.0 0.0 0.0 0.0 0.0 0.0 2.78319 8.13973 2.84861 0.0 10.608 0.0 -4.06899 1.6554003 7.19612 0.0 -10.01185 0.0 1.11666 -7.74796 18.6193 0.0 17.0236 0.0 19.3237 11.180901 -21.5985 0.0 -23.36879 0.0 
  -5.967109985351563 4.118190002441406 10.235399780273438 -41.6681 85.6344 38.3644 4.84624 -14.804 19.989 14.617 34.4376 -31.4151 6.35634 38.7145 54.5676 -59.9267 -33.7068 -78.1967 -115.567 9.39551 -6.15856 -28.5524 27.1525 45.5349 0.0 75.0968 0.0 12.5887 -5.46511 28.2447 0.0 0.0 0.0 0.0 0.0 0.0 113.061005 -0.429195 1.28205 24.4229 4.94686 -15.5176 0.0 78.6544 0.0 -4.48246 12.9627 50.76 0.0 0.0 0.0 0.0 0.0 0.0 3.28637 8.04259 1.81967 0.0 11.1494 0.0 -4.26143 1.4789 7.47245 0.0 -10.06498 0.0 1.43348 -7.36833 18.5939 0.0 17.2765 0.0 20.285 10.50222 -21.6026 0.0 -22.38736 0.0 
  -6.038469848632812 4.067269897460937 10.2375 -43.2647 85.6931 41.0036 5.55745 -14.8867 20.0856 14.3281 34.7671 -32.1774 7.45715 38.2468 53.436 -59.9641 -34.0747 -77.1777 -115.3947 9.30686 -5.91856 -27.7883 26.1266 46.6797 0.0 71.5845 0.0 10.6753 -7.26668 34.6184 0.0 0.0 0.0 0.0 0.0 0.0 113.002304 -1.26838 1.75424 23.7294 2.33782 -20.2493 0.0 79.0016 0.0 -5.96712 15.124 51.6145 0.0 0.0 0.0 0.0 0.0 0.0 3.85409 7.7317 0.896894 0.0 11.705 0.0 -4.48576 1.3577003 7.51989 0.0 -10.14542 0.0 1.68976 -7.09922 17.6034 0.0 17.3965 0.0 20.5695 9.92099 -21.4793 0.0 -20.9945 0.0 
  -6.1085498046875 4.0175 10.241700439453124 -45.3326 85.749 44.168 6.36741 -14.915 20.1941 13.8988 35.0252 -33.0521 8.94751 38.0375 51.8924 -60.1429 -34.5475 -75.8561 -115.154495 9.22405 -5.55445 -27.1546 24.8572 47.7201 0.0 67.9797 0.0 10.4945 -8.55259 39.1514 0.0 0.0 0.0 0.0 0.0 0.0 113.0283 -2.10832 2.14029 22.9756 -0.520924 -24.9402 0.0 79.8714 0.0 -2.7413 14.4547 49.898 0.0 0.0 0.0 0.0 0.0 0.0 4.43066 7.31268 -0.0977717 0.0 12.3527 0.0 -5.04783 1.3237 7.54951 0.0 -10.53406 0.0 1.90812 -6.82208 16.0684 0.0 17.4113 0.0 20.5837 9.630449 -21.0828 0.0 -20.13005 0.0 
